ffmpeg started on 2026-01-20 at 14:11:09
Report written to "D:\Convert\FFMetrics\reports\ssim_report-6.txt"
Log level: 32
Command line:
ffmpeg -hide_banner -nostdin -r 24000/1001 -i "F:\\Convert\\files\\[DC] Make Heroine ga Oosugiru - 07_Telegram_HEVC(206).mkv" -r 24000/1001 -i "F:\\Convert\\files\\[DC] Make Heroine ga Oosugiru - 07_Telegram.mp4" -lavfi "[0:v]settb=AVTB,setpts=PTS-STARTPTS,format=pix_fmts=yuv420p10le,fps=24000/1001,scale=1920:1080:flags=lanczos:param0=3:out_range=limited:out_color_matrix=bt709:out_chroma_loc=left,setsar=1/1,setdar=(1920/1080)*(1/1),colorspace=format=yuv420p10:range=tv:primaries=bt709:trc=bt709:space=bt709:fast=0[main];[1:v]settb=AVTB,setpts=PTS-STARTPTS,format=pix_fmts=yuv420p,fps=24000/1001,scale=1920:1080:flags=lanczos:param0=3:out_range=limited:out_color_matrix=bt709:out_chroma_loc=left,setsar=1.000,setdar=1.778,colorspace=format=yuv420p:range=tv:primaries=bt709:trc=bt709:space=bt709:fast=0[ref];[main][ref]ssim=eof_action=endall:stats_file='D\\:/Convert/FFMetrics/logs/ssim_logfile-6.txt'" -f null -
Input #0, matroska,webm, from 'F:\Convert\files\[DC] Make Heroine ga Oosugiru - 07_Telegram_HEVC(206).mkv':
  Metadata:
    COMPATIBLE_BRANDS: isomiso2avc1mp41
    MAJOR_BRAND     : isom
    MINOR_VERSION   : 512
    ENCODER         : Lavf61.7.100
  Duration: 00:24:06.79, start: -0.021000, bitrate: 964 kb/s
  Stream #0:0: Video: hevc (Main 10), yuv420p10le(tv, bt709, progressive), 1920x1080 [SAR 1:1 DAR 16:9], 23.98 fps, 23.98 tbr, 1k tbn (default)
      Metadata:
        HANDLER_NAME    : VideoHandler
        VENDOR_ID       : [0][0][0][0]
        ENCODER         : Lavc61.19.100 libx265
        BPS             : 767507
        DURATION        : 00:24:06.569708333
        NUMBER_OF_FRAMES: 34683
        NUMBER_OF_BYTES : 138781562
        _STATISTICS_WRITING_APP: mkvpropedit v94.0 ('Initiate') 64-bit
        _STATISTICS_WRITING_DATE_UTC: 2026-01-20 08:57:13
        _STATISTICS_TAGS: BPS DURATION NUMBER_OF_FRAMES NUMBER_OF_BYTES
  Stream #0:1: Audio: aac (LC), 48000 Hz, stereo, fltp (default)
      Metadata:
        HANDLER_NAME    : SoundHandler
        VENDOR_ID       : [0][0][0][0]
        ENCODER         : Lavc61.19.100 aac
        BPS             : 193194
        DURATION        : 00:24:06.784000000
        NUMBER_OF_FRAMES: 67819
        NUMBER_OF_BYTES : 34938755
        _STATISTICS_WRITING_APP: mkvpropedit v94.0 ('Initiate') 64-bit
        _STATISTICS_WRITING_DATE_UTC: 2026-01-20 08:57:13
        _STATISTICS_TAGS: BPS DURATION NUMBER_OF_FRAMES NUMBER_OF_BYTES
Input #1, mov,mp4,m4a,3gp,3g2,mj2, from 'F:\Convert\files\[DC] Make Heroine ga Oosugiru - 07_Telegram.mp4':
  Metadata:
    major_brand     : isom
    minor_version   : 512
    compatible_brands: isomiso2avc1mp41
    encoder         : Lavf60.16.100
  Duration: 00:24:06.74, start: 0.000000, bitrate: 3764 kb/s
  Stream #1:0[0x1](und): Video: h264 (High) (avc1 / 0x31637661), yuv420p(tv, bt709, progressive), 1920x1080 [SAR 1:1 DAR 16:9], 3616 kb/s, 23.98 fps, 23.98 tbr, 24k tbn (default)
      Metadata:
        handler_name    : VideoHandler
        vendor_id       : [0][0][0][0]
        encoder         : Lavc60.31.102 h264_qsv
  Stream #1:1[0x2](und): Audio: aac (HE-AACv2) (mp4a / 0x6134706D), 48000 Hz, stereo, fltp, 144 kb/s (default)
      Metadata:
        handler_name    : SoundHandler
        vendor_id       : [0][0][0][0]
Stream mapping:
  Stream #0:0 (hevc) -> settb:default
  Stream #1:0 (h264) -> settb:default
  ssim:default -> Stream #0:0 (wrapped_avframe)
  Stream #0:1 -> #0:1 (aac (native) -> pcm_s16le (native))
Output #0, null, to 'pipe:':
  Metadata:
    COMPATIBLE_BRANDS: isomiso2avc1mp41
    MAJOR_BRAND     : isom
    MINOR_VERSION   : 512
    encoder         : Lavf61.7.100
  Stream #0:0: Video: wrapped_avframe, yuv420p10le(tv, bt709, progressive), 1920x1080 [SAR 1:1 DAR 16:9], q=2-31, 200 kb/s, 23.98 fps, 23.98 tbn
      Metadata:
        encoder         : Lavc61.19.100 wrapped_avframe
  Stream #0:1: Audio: pcm_s16le, 48000 Hz, stereo, s16, 1536 kb/s (default)
      Metadata:
        HANDLER_NAME    : SoundHandler
        VENDOR_ID       : [0][0][0][0]
        _STATISTICS_TAGS: BPS DURATION NUMBER_OF_FRAMES NUMBER_OF_BYTES
        BPS             : 193194
        DURATION        : 00:24:06.784000000
        NUMBER_OF_FRAMES: 67819
        NUMBER_OF_BYTES : 34938755
        _STATISTICS_WRITING_APP: mkvpropedit v94.0 ('Initiate') 64-bit
        _STATISTICS_WRITING_DATE_UTC: 2026-01-20 08:57:13
        encoder         : Lavc61.19.100 pcm_s16le
frame=  133 fps=0.0 q=-0.0 size=N/A time=00:00:05.54 bitrate=N/A speed=10.8x    frame=  330 fps=321 q=-0.0 size=N/A time=00:00:13.76 bitrate=N/A speed=13.4x    frame=  530 fps=341 q=-0.0 size=N/A time=00:00:22.10 bitrate=N/A speed=14.2x    frame=  727 fps=352 q=-0.0 size=N/A time=00:00:30.32 bitrate=N/A speed=14.7x    frame=  910 fps=353 q=-0.0 size=N/A time=00:00:37.95 bitrate=N/A speed=14.7x    frame= 1066 fps=343 q=-0.0 size=N/A time=00:00:44.46 bitrate=N/A speed=14.3x    frame= 1220 fps=338 q=-0.0 size=N/A time=00:00:50.88 bitrate=N/A speed=14.1x    frame= 1391 fps=337 q=-0.0 size=N/A time=00:00:58.01 bitrate=N/A speed=14.1x    frame= 1539 fps=332 q=-0.0 size=N/A time=00:01:04.18 bitrate=N/A speed=13.8x    frame= 1688 fps=327 q=-0.0 size=N/A time=00:01:10.40 bitrate=N/A speed=13.6x    frame= 1855 fps=327 q=-0.0 size=N/A time=00:01:17.36 bitrate=N/A speed=13.6x    frame= 2032 fps=328 q=-0.0 size=N/A time=00:01:24.75 bitrate=N/A speed=13.7x    frame= 2138 fps=319 q=-0.0 size=N/A time=00:01:29.17 bitrate=N/A speed=13.3x    frame= 2300 fps=318 q=-0.0 size=N/A time=00:01:35.92 bitrate=N/A speed=13.3x    frame= 2446 fps=316 q=-0.0 size=N/A time=00:01:42.01 bitrate=N/A speed=13.2x    frame= 2579 fps=313 q=-0.0 size=N/A time=00:01:47.56 bitrate=N/A speed=  13x    frame= 2749 fps=314 q=-0.0 size=N/A time=00:01:54.65 bitrate=N/A speed=13.1x    frame= 2932 fps=316 q=-0.0 size=N/A time=00:02:02.28 bitrate=N/A speed=13.2x    frame= 3125 fps=319 q=-0.0 size=N/A time=00:02:10.33 bitrate=N/A speed=13.3x    frame= 3319 fps=322 q=-0.0 size=N/A time=00:02:18.42 bitrate=N/A speed=13.4x    frame= 3521 fps=325 q=-0.0 size=N/A time=00:02:26.85 bitrate=N/A speed=13.6x    frame= 3721 fps=328 q=-0.0 size=N/A time=00:02:35.19 bitrate=N/A speed=13.7x    frame= 3918 fps=330 q=-0.0 size=N/A time=00:02:43.41 bitrate=N/A speed=13.8x    frame= 4124 fps=333 q=-0.0 size=N/A time=00:02:52.00 bitrate=N/A speed=13.9x    frame= 4320 fps=335 q=-0.0 size=N/A time=00:03:00.18 bitrate=N/A speed=  14x    frame= 4515 fps=337 q=-0.0 size=N/A time=00:03:08.31 bitrate=N/A speed=  14x    frame= 4710 fps=338 q=-0.0 size=N/A time=00:03:16.44 bitrate=N/A speed=14.1x    frame= 4908 fps=340 q=-0.0 size=N/A time=00:03:24.70 bitrate=N/A speed=14.2x    frame= 5109 fps=342 q=-0.0 size=N/A time=00:03:33.08 bitrate=N/A speed=14.2x    frame= 5302 fps=343 q=-0.0 size=N/A time=00:03:41.13 bitrate=N/A speed=14.3x    frame= 5497 fps=344 q=-0.0 size=N/A time=00:03:49.27 bitrate=N/A speed=14.3x    frame= 5702 fps=345 q=-0.0 size=N/A time=00:03:57.82 bitrate=N/A speed=14.4x    frame= 5896 fps=346 q=-0.0 size=N/A time=00:04:05.91 bitrate=N/A speed=14.4x    frame= 6093 fps=348 q=-0.0 size=N/A time=00:04:14.12 bitrate=N/A speed=14.5x    frame= 6287 fps=348 q=-0.0 size=N/A time=00:04:22.22 bitrate=N/A speed=14.5x    frame= 6489 fps=349 q=-0.0 size=N/A time=00:04:30.64 bitrate=N/A speed=14.6x    frame= 6688 fps=350 q=-0.0 size=N/A time=00:04:38.94 bitrate=N/A speed=14.6x    frame= 6879 fps=351 q=-0.0 size=N/A time=00:04:46.91 bitrate=N/A speed=14.6x    frame= 7077 fps=352 q=-0.0 size=N/A time=00:04:55.16 bitrate=N/A speed=14.7x    frame= 7273 fps=352 q=-0.0 size=N/A time=00:05:03.34 bitrate=N/A speed=14.7x    frame= 7467 fps=353 q=-0.0 size=N/A time=00:05:11.43 bitrate=N/A speed=14.7x    frame= 7644 fps=353 q=-0.0 size=N/A time=00:05:18.81 bitrate=N/A speed=14.7x    frame= 7840 fps=353 q=-0.0 size=N/A time=00:05:26.99 bitrate=N/A speed=14.7x    frame= 8034 fps=354 q=-0.0 size=N/A time=00:05:35.08 bitrate=N/A speed=14.8x    frame= 8226 fps=355 q=-0.0 size=N/A time=00:05:43.09 bitrate=N/A speed=14.8x    frame= 8424 fps=355 q=-0.0 size=N/A time=00:05:51.35 bitrate=N/A speed=14.8x    frame= 8615 fps=355 q=-0.0 size=N/A time=00:05:59.31 bitrate=N/A speed=14.8x    frame= 8806 fps=356 q=-0.0 size=N/A time=00:06:07.28 bitrate=N/A speed=14.8x    frame= 8999 fps=356 q=-0.0 size=N/A time=00:06:15.33 bitrate=N/A speed=14.9x    frame= 9201 fps=357 q=-0.0 size=N/A time=00:06:23.75 bitrate=N/A speed=14.9x    frame= 9388 fps=357 q=-0.0 size=N/A time=00:06:31.55 bitrate=N/A speed=14.9x    frame= 9584 fps=357 q=-0.0 size=N/A time=00:06:39.73 bitrate=N/A speed=14.9x    frame= 9778 fps=358 q=-0.0 size=N/A time=00:06:47.82 bitrate=N/A speed=14.9x    frame= 9970 fps=358 q=-0.0 size=N/A time=00:06:55.83 bitrate=N/A speed=14.9x    frame=10149 fps=358 q=-0.0 size=N/A time=00:07:03.29 bitrate=N/A speed=14.9x    frame=10332 fps=358 q=-0.0 size=N/A time=00:07:10.93 bitrate=N/A speed=14.9x    frame=10532 fps=358 q=-0.0 size=N/A time=00:07:19.27 bitrate=N/A speed=14.9x    frame=10718 fps=358 q=-0.0 size=N/A time=00:07:27.02 bitrate=N/A speed=14.9x    frame=10906 fps=359 q=-0.0 size=N/A time=00:07:34.87 bitrate=N/A speed=  15x    frame=11109 fps=359 q=-0.0 size=N/A time=00:07:43.33 bitrate=N/A speed=  15x    frame=11296 fps=359 q=-0.0 size=N/A time=00:07:51.13 bitrate=N/A speed=  15x    frame=11497 fps=360 q=-0.0 size=N/A time=00:07:59.52 bitrate=N/A speed=  15x    frame=11684 fps=360 q=-0.0 size=N/A time=00:08:07.32 bitrate=N/A speed=  15x    frame=11888 fps=360 q=-0.0 size=N/A time=00:08:15.82 bitrate=N/A speed=  15x    frame=12083 fps=360 q=-0.0 size=N/A time=00:08:23.96 bitrate=N/A speed=  15x    frame=12273 fps=361 q=-0.0 size=N/A time=00:08:31.88 bitrate=N/A speed=  15x    frame=12467 fps=361 q=-0.0 size=N/A time=00:08:39.97 bitrate=N/A speed=15.1x    frame=12666 fps=361 q=-0.0 size=N/A time=00:08:48.27 bitrate=N/A speed=15.1x    frame=12855 fps=361 q=-0.0 size=N/A time=00:08:56.16 bitrate=N/A speed=15.1x    frame=13042 fps=361 q=-0.0 size=N/A time=00:09:03.96 bitrate=N/A speed=15.1x    frame=13229 fps=361 q=-0.0 size=N/A time=00:09:11.75 bitrate=N/A speed=15.1x    frame=13419 fps=361 q=-0.0 size=N/A time=00:09:19.68 bitrate=N/A speed=15.1x    frame=13608 fps=362 q=-0.0 size=N/A time=00:09:27.56 bitrate=N/A speed=15.1x    frame=13808 fps=362 q=-0.0 size=N/A time=00:09:35.90 bitrate=N/A speed=15.1x    frame=14000 fps=362 q=-0.0 size=N/A time=00:09:43.91 bitrate=N/A speed=15.1x    frame=14182 fps=362 q=-0.0 size=N/A time=00:09:51.50 bitrate=N/A speed=15.1x    frame=14375 fps=362 q=-0.0 size=N/A time=00:09:59.55 bitrate=N/A speed=15.1x    frame=14564 fps=362 q=-0.0 size=N/A time=00:10:07.44 bitrate=N/A speed=15.1x    frame=14762 fps=362 q=-0.0 size=N/A time=00:10:15.69 bitrate=N/A speed=15.1x    frame=14953 fps=362 q=-0.0 size=N/A time=00:10:23.66 bitrate=N/A speed=15.1x    frame=15116 fps=362 q=-0.0 size=N/A time=00:10:30.46 bitrate=N/A speed=15.1x    frame=15289 fps=362 q=-0.0 size=N/A time=00:10:37.67 bitrate=N/A speed=15.1x    frame=15475 fps=362 q=-0.0 size=N/A time=00:10:45.43 bitrate=N/A speed=15.1x    frame=15667 fps=362 q=-0.0 size=N/A time=00:10:53.44 bitrate=N/A speed=15.1x    frame=15860 fps=362 q=-0.0 size=N/A time=00:11:01.49 bitrate=N/A speed=15.1x    frame=16057 fps=362 q=-0.0 size=N/A time=00:11:09.71 bitrate=N/A speed=15.1x    frame=16251 fps=362 q=-0.0 size=N/A time=00:11:17.80 bitrate=N/A speed=15.1x    frame=16439 fps=362 q=-0.0 size=N/A time=00:11:25.64 bitrate=N/A speed=15.1x    frame=16636 fps=362 q=-0.0 size=N/A time=00:11:33.85 bitrate=N/A speed=15.1x    frame=16833 fps=363 q=-0.0 size=N/A time=00:11:42.07 bitrate=N/A speed=15.1x    frame=17030 fps=363 q=-0.0 size=N/A time=00:11:50.29 bitrate=N/A speed=15.1x    frame=17232 fps=363 q=-0.0 size=N/A time=00:11:58.71 bitrate=N/A speed=15.1x    frame=17432 fps=363 q=-0.0 size=N/A time=00:12:07.05 bitrate=N/A speed=15.2x    frame=17610 fps=363 q=-0.0 size=N/A time=00:12:14.48 bitrate=N/A speed=15.2x    frame=17799 fps=363 q=-0.0 size=N/A time=00:12:22.36 bitrate=N/A speed=15.2x    frame=17996 fps=364 q=-0.0 size=N/A time=00:12:30.58 bitrate=N/A speed=15.2x    frame=18185 fps=364 q=-0.0 size=N/A time=00:12:38.46 bitrate=N/A speed=15.2x    frame=18365 fps=363 q=-0.0 size=N/A time=00:12:45.97 bitrate=N/A speed=15.2x    frame=18555 fps=363 q=-0.0 size=N/A time=00:12:53.89 bitrate=N/A speed=15.2x    frame=18753 fps=364 q=-0.0 size=N/A time=00:13:02.15 bitrate=N/A speed=15.2x    frame=18954 fps=364 q=-0.0 size=N/A time=00:13:10.53 bitrate=N/A speed=15.2x    frame=19148 fps=364 q=-0.0 size=N/A time=00:13:18.63 bitrate=N/A speed=15.2x    frame=19344 fps=364 q=-0.0 size=N/A time=00:13:26.80 bitrate=N/A speed=15.2x    frame=19542 fps=364 q=-0.0 size=N/A time=00:13:35.06 bitrate=N/A speed=15.2x    frame=19742 fps=365 q=-0.0 size=N/A time=00:13:43.40 bitrate=N/A speed=15.2x    frame=19942 fps=365 q=-0.0 size=N/A time=00:13:51.74 bitrate=N/A speed=15.2x    frame=20143 fps=365 q=-0.0 size=N/A time=00:14:00.13 bitrate=N/A speed=15.2x    frame=20342 fps=365 q=-0.0 size=N/A time=00:14:08.43 bitrate=N/A speed=15.2x    frame=20531 fps=365 q=-0.0 size=N/A time=00:14:16.31 bitrate=N/A speed=15.2x    frame=20721 fps=365 q=-0.0 size=N/A time=00:14:24.23 bitrate=N/A speed=15.2x    frame=20915 fps=365 q=-0.0 size=N/A time=00:14:32.32 bitrate=N/A speed=15.2x    frame=21117 fps=366 q=-0.0 size=N/A time=00:14:40.75 bitrate=N/A speed=15.2x    frame=21315 fps=366 q=-0.0 size=N/A time=00:14:49.01 bitrate=N/A speed=15.3x    frame=21507 fps=366 q=-0.0 size=N/A time=00:14:57.02 bitrate=N/A speed=15.3x    frame=21702 fps=366 q=-0.0 size=N/A time=00:15:05.15 bitrate=N/A speed=15.3x    frame=21903 fps=366 q=-0.0 size=N/A time=00:15:13.53 bitrate=N/A speed=15.3x    frame=22094 fps=366 q=-0.0 size=N/A time=00:15:21.50 bitrate=N/A speed=15.3x    frame=22280 fps=366 q=-0.0 size=N/A time=00:15:29.26 bitrate=N/A speed=15.3x    frame=22468 fps=366 q=-0.0 size=N/A time=00:15:37.10 bitrate=N/A speed=15.3x    frame=22653 fps=366 q=-0.0 size=N/A time=00:15:44.81 bitrate=N/A speed=15.3x    frame=22846 fps=366 q=-0.0 size=N/A time=00:15:52.86 bitrate=N/A speed=15.3x    frame=23033 fps=366 q=-0.0 size=N/A time=00:16:00.66 bitrate=N/A speed=15.3x    frame=23239 fps=366 q=-0.0 size=N/A time=00:16:09.25 bitrate=N/A speed=15.3x    frame=23433 fps=366 q=-0.0 size=N/A time=00:16:17.35 bitrate=N/A speed=15.3x    frame=23623 fps=366 q=-0.0 size=N/A time=00:16:25.27 bitrate=N/A speed=15.3x    frame=23821 fps=367 q=-0.0 size=N/A time=00:16:33.53 bitrate=N/A speed=15.3x    frame=24015 fps=367 q=-0.0 size=N/A time=00:16:41.62 bitrate=N/A speed=15.3x    frame=24210 fps=367 q=-0.0 size=N/A time=00:16:49.75 bitrate=N/A speed=15.3x    frame=24402 fps=367 q=-0.0 size=N/A time=00:16:57.76 bitrate=N/A speed=15.3x    frame=24608 fps=367 q=-0.0 size=N/A time=00:17:06.35 bitrate=N/A speed=15.3x    frame=24806 fps=367 q=-0.0 size=N/A time=00:17:14.61 bitrate=N/A speed=15.3x    frame=25002 fps=367 q=-0.0 size=N/A time=00:17:22.79 bitrate=N/A speed=15.3x    frame=25192 fps=367 q=-0.0 size=N/A time=00:17:30.71 bitrate=N/A speed=15.3x    frame=25388 fps=367 q=-0.0 size=N/A time=00:17:38.89 bitrate=N/A speed=15.3x    frame=25578 fps=367 q=-0.0 size=N/A time=00:17:46.81 bitrate=N/A speed=15.3x    frame=25768 fps=367 q=-0.0 size=N/A time=00:17:54.74 bitrate=N/A speed=15.3x    frame=25965 fps=367 q=-0.0 size=N/A time=00:18:02.95 bitrate=N/A speed=15.3x    frame=26163 fps=367 q=-0.0 size=N/A time=00:18:11.21 bitrate=N/A speed=15.3x    frame=26355 fps=368 q=-0.0 size=N/A time=00:18:19.22 bitrate=N/A speed=15.3x    frame=26551 fps=368 q=-0.0 size=N/A time=00:18:27.39 bitrate=N/A speed=15.3x    frame=26740 fps=368 q=-0.0 size=N/A time=00:18:35.28 bitrate=N/A speed=15.3x    frame=26930 fps=368 q=-0.0 size=N/A time=00:18:43.20 bitrate=N/A speed=15.3x    frame=27112 fps=367 q=-0.0 size=N/A time=00:18:50.79 bitrate=N/A speed=15.3x    frame=27295 fps=367 q=-0.0 size=N/A time=00:18:58.42 bitrate=N/A speed=15.3x    frame=27472 fps=367 q=-0.0 size=N/A time=00:19:05.81 bitrate=N/A speed=15.3x    frame=27658 fps=367 q=-0.0 size=N/A time=00:19:13.56 bitrate=N/A speed=15.3x    frame=27842 fps=367 q=-0.0 size=N/A time=00:19:21.24 bitrate=N/A speed=15.3x    frame=28030 fps=367 q=-0.0 size=N/A time=00:19:29.08 bitrate=N/A speed=15.3x    frame=28211 fps=367 q=-0.0 size=N/A time=00:19:36.63 bitrate=N/A speed=15.3x    frame=28405 fps=367 q=-0.0 size=N/A time=00:19:44.72 bitrate=N/A speed=15.3x    frame=28595 fps=367 q=-0.0 size=N/A time=00:19:52.64 bitrate=N/A speed=15.3x    frame=28763 fps=367 q=-0.0 size=N/A time=00:19:59.65 bitrate=N/A speed=15.3x    frame=28928 fps=367 q=-0.0 size=N/A time=00:20:06.53 bitrate=N/A speed=15.3x    frame=29102 fps=366 q=-0.0 size=N/A time=00:20:13.79 bitrate=N/A speed=15.3x    frame=29268 fps=366 q=-0.0 size=N/A time=00:20:20.71 bitrate=N/A speed=15.3x    frame=29441 fps=366 q=-0.0 size=N/A time=00:20:27.93 bitrate=N/A speed=15.3x    frame=29602 fps=366 q=-0.0 size=N/A time=00:20:34.65 bitrate=N/A speed=15.2x    frame=29781 fps=365 q=-0.0 size=N/A time=00:20:42.11 bitrate=N/A speed=15.2x    frame=29946 fps=365 q=-0.0 size=N/A time=00:20:48.99 bitrate=N/A speed=15.2x    frame=30114 fps=365 q=-0.0 size=N/A time=00:20:56.00 bitrate=N/A speed=15.2x    frame=30300 fps=365 q=-0.0 size=N/A time=00:21:03.76 bitrate=N/A speed=15.2x    frame=30459 fps=364 q=-0.0 size=N/A time=00:21:10.39 bitrate=N/A speed=15.2x    frame=30637 fps=364 q=-0.0 size=N/A time=00:21:17.81 bitrate=N/A speed=15.2x    frame=30837 fps=364 q=-0.0 size=N/A time=00:21:26.15 bitrate=N/A speed=15.2x    frame=31028 fps=364 q=-0.0 size=N/A time=00:21:34.12 bitrate=N/A speed=15.2x    frame=31218 fps=365 q=-0.0 size=N/A time=00:21:42.05 bitrate=N/A speed=15.2x    frame=31396 fps=364 q=-0.0 size=N/A time=00:21:49.47 bitrate=N/A speed=15.2x    frame=31586 fps=364 q=-0.0 size=N/A time=00:21:57.39 bitrate=N/A speed=15.2x    frame=31767 fps=364 q=-0.0 size=N/A time=00:22:04.94 bitrate=N/A speed=15.2x    frame=31933 fps=364 q=-0.0 size=N/A time=00:22:11.87 bitrate=N/A speed=15.2x    frame=32119 fps=364 q=-0.0 size=N/A time=00:22:19.62 bitrate=N/A speed=15.2x    frame=32291 fps=364 q=-0.0 size=N/A time=00:22:26.80 bitrate=N/A speed=15.2x    frame=32477 fps=364 q=-0.0 size=N/A time=00:22:34.56 bitrate=N/A speed=15.2x    frame=32645 fps=364 q=-0.0 size=N/A time=00:22:41.56 bitrate=N/A speed=15.2x    frame=32786 fps=363 q=-0.0 size=N/A time=00:22:47.44 bitrate=N/A speed=15.1x    frame=32949 fps=363 q=-0.0 size=N/A time=00:22:54.24 bitrate=N/A speed=15.1x    frame=33119 fps=363 q=-0.0 size=N/A time=00:23:01.33 bitrate=N/A speed=15.1x    frame=33290 fps=362 q=-0.0 size=N/A time=00:23:08.47 bitrate=N/A speed=15.1x    frame=33467 fps=362 q=-0.0 size=N/A time=00:23:15.85 bitrate=N/A speed=15.1x    frame=33615 fps=362 q=-0.0 size=N/A time=00:23:22.02 bitrate=N/A speed=15.1x    frame=33760 fps=361 q=-0.0 size=N/A time=00:23:28.07 bitrate=N/A speed=15.1x    frame=33883 fps=361 q=-0.0 size=N/A time=00:23:33.20 bitrate=N/A speed=  15x    frame=34041 fps=361 q=-0.0 size=N/A time=00:23:39.79 bitrate=N/A speed=  15x    frame=34207 fps=360 q=-0.0 size=N/A time=00:23:46.71 bitrate=N/A speed=  15x    frame=34346 fps=360 q=-0.0 size=N/A time=00:23:52.51 bitrate=N/A speed=  15x    frame=34488 fps=359 q=-0.0 size=N/A time=00:23:58.43 bitrate=N/A speed=  15x    frame=34682 fps=359 q=-0.0 size=N/A time=00:24:06.52 bitrate=N/A speed=  15x    [Parsed_ssim_16 @ 0000022e1d804080] SSIM Y:0.994233 (22.390328) U:0.994029 (22.239237) V:0.993634 (21.961567) All:0.994099 (22.290747)
[out#0/null @ 0000022e1075fe80] video:14903KiB audio:271276KiB subtitle:0KiB other streams:0KiB global headers:0KiB muxing overhead: unknown
frame=34683 fps=359 q=-0.0 Lsize=N/A time=00:24:06.57 bitrate=N/A speed=  15x    
